<svg viewBox="0 0 24 24" fill="none" xmlns="http://www.w3.org/2000/svg">
  <!-- Ghost body with rounded top -->
  <path d="M12 2C8.686 2 6 4.686 6 8v8c0 .553.224 1.053.586 1.414L8 18.828V20c0 .553.447 1 1 1s1-.447 1-1v-1h1v1c0 .553.447 1 1 1s1-.447 1-1v-1h1v1c0 .553.447 1 1 1s1-.447 1-1v-1.172l1.414-1.414C17.776 17.053 18 16.553 18 16V8c0-3.314-2.686-6-6-6z" fill="currentColor" opacity="0.9"/>
  
  <!-- Eyes -->
  <circle cx="9.5" cy="10" r="1.5" fill="#1C1C1E"/>
  <circle cx="14.5" cy="10" r="1.5" fill="#1C1C1E"/>
  
  <!-- Mouth (optional subtle curve) -->
  <path d="M9 13c0 1.657 1.343 3 3 3s3-1.343 3-3" stroke="#1C1C1E" stroke-width="1.5" stroke-linecap="round" fill="none" opacity="0.6"/>
</svg>

